{
	"asset":{
		"generator":"Khronos glTF Blender I/O v4.3.47",
		"version":"2.0"
	},
	"scene":0,
	"scenes":[
		{
			"name":"Scene",
			"nodes":[
				0
			]
		}
	],
	"nodes":[
		{
			"mesh":0,
			"name":"Suzanne"
		}
	],
	"meshes":[
		{
			"name":"Suzanne",
			"primitives":[
				{
					"attributes":{
						"POSITION":0,
						"NORMAL":1,
						"TEXCOORD_0":2
					},
					"indices":3
				}
			]
		}
	],
	"accessors":[
		{
			"bufferView":0,
			"componentType":5126,
			"count":2109,
			"max":[
				1.325934886932373,
				0.9392362236976624,
				0.8223199844360352
			],
			"min":[
				-1.325934886932373,
				-0.9704862236976624,
				-0.7782661318778992
			],
			"type":"VEC3"
		},
		{
			"bufferView":1,
			"componentType":5126,
			"count":2109,
			"type":"VEC3"
		},
		{
			"bufferView":2,
			"componentType":5126,
			"count":2109,
			"type":"VEC2"
		},
		{
			"bufferView":3,
			"componentType":5123,
			"count":11808,
			"type":"SCALAR"
		}
	],
	"bufferViews":[
		{
			"buffer":0,
			"byteLength":25308,
			"byteOffset":0,
			"target":34962
		},
		{
			"buffer":0,
			"byteLength":25308,
			"byteOffset":25308,
			"target":34962
		},
		{
			"buffer":0,
			"byteLength":16872,
			"byteOffset":50616,
			"target":34962
		},
		{
			"buffer":0,
			"byteLength":23616,
			"byteOffset":67488,
			"target":34963
		}
	],
	"buffers":[
		{
			"byteLength":91104,
			"uri":"demo.bin"
		}
	]
}
